<svg aria-hidden="true" style="position: absolute; width: 0; height: 0; overflow: hidden;" version="1.1" xmlns="http://www.w3.org/2000/svg" xmlns:xlink="http://www.w3.org/1999/xlink">
<defs>
<symbol id="icon-credit-card" viewBox="0 0 32 32">
<path d="M29 4h-26c-1.65 0-3 1.35-3 3v18c0 1.65 1.35 3 3 3h26c1.65 0 3-1.35 3-3v-18c0-1.65-1.35-3-3-3zM3 6h26c0.542 0 1 0.458 1 1v3h-28v-3c0-0.542 0.458-1 1-1zM29 26h-26c-0.542 0-1-0.458-1-1v-9h28v9c0 0.542-0.458 1-1 1zM4 20h2v4h-2zM8 20h2v4h-2zM12 20h2v4h-2z"></path>
</symbol>
<symbol id="icon-user" viewBox="0 0 32 32">
<path d="M18 22.082v-1.649c2.203-1.241 4-4.337 4-7.432 0-4.971 0-9-6-9s-6 4.029-6 9c0 3.096 1.797 6.191 4 7.432v1.649c-6.784 0.555-12 3.888-12 7.918h28c0-4.030-5.216-7.364-12-7.918z"></path>
</symbol>
<symbol id="icon-trophy" viewBox="0 0 32 32">
<path d="M26 6v-4h-20v4h-6v4c0 3.314 2.686 6 6 6 0.627 0 1.232-0.096 1.801-0.275 1.443 2.063 3.644 3.556 6.199 4.075v6.2h-2c-2.209 0-4 1.791-4 4h16c0-2.209-1.791-4-4-4h-2v-6.2c2.555-0.519 4.756-2.012 6.199-4.075 0.568 0.179 1.173 0.275 1.801 0.275 3.314 0 6-2.686 6-6v-4h-6zM6 13.625c-1.999 0-3.625-1.626-3.625-3.625v-2h3.625v2c0 1.256 0.232 2.457 0.655 3.565-0.213 0.039-0.431 0.060-0.655 0.060zM29.625 10c0 1.999-1.626 3.625-3.625 3.625-0.224 0-0.442-0.021-0.655-0.060 0.423-1.107 0.655-2.309 0.655-3.565v-2h3.625v2z"></path>
</symbol>
<symbol id="icon-glass2" viewBox="0 0 32 32">
<path d="M27.786 5.618c0.236-0.301 0.28-0.711 0.113-1.055s-0.517-0.563-0.899-0.563h-22c-0.383 0-0.732 0.219-0.899 0.563s-0.123 0.754 0.113 1.055l9.786 12.455v11.927h-3c-0.552 0-1 0.448-1 1s0.448 1 1 1h10c0.552 0 1-0.448 1-1s-0.448-1-1-1h-3v-11.927l9.786-12.455zM24.943 6l-3.143 4h-11.599l-3.143-4h17.885z"></path>
</symbol>
<symbol id="icon-arrow_forward_ios" viewBox="0 0 24 24">
<path d="M5.859 4.125l2.156-2.109 9.984 9.984-9.984 9.984-2.156-2.109 7.922-7.875z"></path>
</symbol>
<symbol id="icon-smile-o" viewBox="0 0 24 28">
<path d="M17.719 16.797c-0.781 2.516-3.078 4.203-5.719 4.203s-4.937-1.687-5.719-4.203c-0.172-0.531 0.125-1.078 0.656-1.25 0.516-0.172 1.078 0.125 1.25 0.656 0.516 1.672 2.063 2.797 3.813 2.797s3.297-1.125 3.813-2.797c0.172-0.531 0.734-0.828 1.266-0.656 0.516 0.172 0.812 0.719 0.641 1.25zM10 10c0 1.109-0.891 2-2 2s-2-0.891-2-2 0.891-2 2-2 2 0.891 2 2zM18 10c0 1.109-0.891 2-2 2s-2-0.891-2-2 0.891-2 2-2 2 0.891 2 2zM22 14c0-5.516-4.484-10-10-10s-10 4.484-10 10 4.484 10 10 10 10-4.484 10-10zM24 14c0 6.625-5.375 12-12 12s-12-5.375-12-12 5.375-12 12-12 12 5.375 12 12z"></path>
</symbol>
<symbol id="icon-telegram" viewBox="0 0 32 32">
<path  d="M31.88 5.053l-4.813 22.733c-0.333 1.613-1.307 2-2.667 1.253l-7.333-5.427-3.547 3.427c-0.4 0.4-0.733 0.747-1.467 0.747-0.96 0-0.8-0.36-1.12-1.267l-2.533-8.253-7.267-2.267c-1.573-0.467-1.587-1.547 0.347-2.333l28.347-10.933c1.293-0.573 2.533 0.32 2.053 2.32z"></path>
</symbol>
<symbol id="icon-lifebuoy" viewBox="0 0 32 32">
<path d="M16 0c-8.837 0-16 7.163-16 16s7.163 16 16 16 16-7.163 16-16-7.163-16-16-16zM10 16c0-3.314 2.686-6 6-6s6 2.686 6 6-2.686 6-6 6-6-2.686-6-6zM28.937 21.359v0l-5.544-2.297c0.391-0.943 0.608-1.977 0.608-3.062s-0.216-2.119-0.608-3.062l5.544-2.297c0.685 1.651 1.063 3.46 1.063 5.359s-0.379 3.708-1.063 5.359v0zM21.359 3.063v0 0l-2.297 5.544c-0.943-0.391-1.977-0.607-3.062-0.607s-2.119 0.216-3.062 0.607l-2.297-5.544c1.651-0.684 3.46-1.063 5.359-1.063s3.708 0.379 5.359 1.063zM3.063 10.641l5.544 2.297c-0.391 0.943-0.608 1.977-0.608 3.062s0.216 2.119 0.607 3.062l-5.544 2.297c-0.685-1.651-1.063-3.46-1.063-5.359s0.379-3.708 1.063-5.359zM10.641 28.937l2.297-5.544c0.943 0.391 1.977 0.608 3.062 0.608s2.119-0.216 3.062-0.608l2.297 5.544c-1.651 0.684-3.46 1.063-5.359 1.063s-3.708-0.379-5.359-1.063z"></path>
</symbol>   
</defs>
</svg>
